<svg width="122" height="122" viewBox="0 0 122 122" fill="none" xmlns="http://www.w3.org/2000/svg">
<circle cx="61" cy="61" r="61" fill="#C7D2FF"/>
<path d="M64.6154 50.046C66.8627 51.119 68.8197 52.7156 70.322 54.7017C71.8243 56.6879 72.8281 59.0056 73.2489 61.4601C73.6697 63.9146 73.4954 66.4342 72.7405 68.8074C71.9856 71.1805 70.6722 73.3379 68.9107 75.0982L53.3482 90.6607C50.4296 93.5792 46.4712 95.2188 42.3437 95.2188C38.2163 95.2188 34.2579 93.5792 31.3393 90.6607C28.4208 87.7421 26.7812 83.7837 26.7812 79.6562C26.7812 75.5288 28.4208 71.5704 31.3393 68.6518L37.4156 62.5755M83.5844 60.4245L89.6607 54.3482C92.5792 51.4296 94.2188 47.4712 94.2188 43.3437C94.2188 39.2163 92.5792 35.2579 89.6607 32.3393C86.7421 29.4208 82.7837 27.7812 78.6562 27.7812C74.5288 27.7812 70.5704 29.4208 67.6518 32.3393L52.0893 47.9018C50.3278 49.6621 49.0144 51.8195 48.2595 54.1926C47.5046 56.5658 47.3303 59.0854 47.7511 61.5399C48.1719 63.9944 49.1757 66.3121 50.678 68.2983C52.1803 70.2844 54.1373 71.881 56.3846 72.954" stroke="#2463EB" stroke-width="7" stroke-linecap="round" stroke-linejoin="round"/>
</svg>
